<svg height="24" viewBox="0 0 32 32" width="24" xmlns="http://www.w3.org/2000/svg"><path d="m18 20h12v2h-12z" fill="#373737"/><path d="m18 24h12v2h-12z" fill="#373737"/><path d="m18 28h12v2h-12z" fill="#373737"/><path d="m14 18a1.5 1.5 0 1 0 1.5 1.5 1.5 1.5 0 0 0 -1.5-1.5z" fill="#373737"/><path d="m13 7h2v9h-2z" fill="#373737"/><path d="m14 4a10.0111 10.0111 0 0 1 10 10h2a12 12 0 1 0 -12 12v-2a10 10 0 0 1 0-20z" fill="#373737"/><style>path{fill:#373737}@media (prefers-color-scheme:dark){path{fill:#fafafa}}</style></svg>
