<svg clip-rule="evenodd" fill-rule="evenodd" stroke-linejoin="round" stroke-miterlimit="2" viewBox="0 0 16 16" xmlns="http://www.w3.org/2000/svg"><path d="m7.063 3.002c.021-.001.042-.002.064-.002h7.873c.552 0 1 .448 1 1v3c0 .552-.448 1-1 1s-1-.448-1-1v-2h-6.873c-.021 0-.043-.001-.064-.002-.021.001-.042.002-.063.002h-3.586l1.293 1.293c.391.39.391 1.024 0 1.414-.39.391-1.024.391-1.414 0l-3-3c-.391-.39-.391-1.024 0-1.414l3-3c.39-.391 1.024-.391 1.414 0 .391.39.391 1.024 0 1.414l-1.293 1.293h3.586c.021 0 .042.001.063.002zm5.523 9.998h-11.586c-.552 0-1-.495-1-1.047v-2.953c0-.552.448-1 1-1s1 .448 1 1v2h10.586l-1.293-1.293c-.391-.39-.391-1.024 0-1.414.39-.391 1.024-.391 1.414 0l3 3c.391.39.391 1.024 0 1.414l-3 3c-.39.391-1.024.391-1.414 0-.391-.39-.391-1.024 0-1.414z" fill="#137bbb" transform="matrix(.75 0 0 .75 2 2)"/><style>path{fill:#137bbb}@media (prefers-color-scheme:dark){path{fill:#fafafa}}</style></svg>
