<svg fill="none" viewBox="0 0 24 24" xmlns="http://www.w3.org/2000/svg"><path d="m7.0498 7.0498h.01m3.452-4.0498h-2.7118c-1.68016 0-2.52024 0-3.16197.32698-.56449.28762-1.02343.74656-1.31105 1.31105-.32698.64173-.32698 1.48181-.32698 3.16197v2.7118c0 .7337 0 1.1006.08289 1.4459.07349.3061.1947.5987.35919.8672.18552.3027.44495.5621.96381 1.081l4.7 4.7c1.18801 1.188 1.78211 1.7821 2.46701 2.0046.6026.1958 1.2516.1958 1.8542 0 .6849-.2225 1.279-.8166 2.467-2.0046l2.7118-2.7118c1.188-1.188 1.7821-1.7821 2.0046-2.467.1958-.6026.1958-1.2516 0-1.8542-.2225-.6849-.8166-1.279-2.0046-2.46701l-4.7-4.7c-.5189-.51886-.7783-.77829-1.081-.96381-.2685-.16449-.5611-.2857-.8672-.35919-.3453-.08289-.7122-.08289-1.4459-.08289zm-2.962 4.0498c0 .27615-.22385.5-.5.5-.27614 0-.5-.22385-.5-.5 0-.27614.22386-.5.5-.5.27615 0 .5.22386.5.5z" stroke="#137bbb" stroke-linecap="round" stroke-linejoin="round" stroke-width="2"/><style>path{stroke:#137bbb}@media (prefers-color-scheme:dark){path{stroke:#fafafa}}</style></svg>
