<svg viewBox="-3.848 -66.36 107.292 115.904" xmlns="http://www.w3.org/2000/svg"><path clip-rule="evenodd" d="m28.613 33.337c.982-.07 2.996-.432 3.437-2.124.59-2.254.55-1.383 1.182-.32.62 1.07 3.076.74 2.835-2.175-.23-2.915-.28-3.326-.28-3.326s.41.5.93.9c2.426 1.865 2.967-.89 2.716-2.192-.25-1.312-1.442-2.705-.892-3.848 0 0 .11.15 1.354 1.513 1.242 1.373 4.348-.04 2.735-2.735-1.614-2.694.01-4.298-1.964-6.782-.45-.57-.812-1.02-1.092-1.383-.45 0-1.032 0-1.763-.01-3.165-.02-3.436 2.234-6.55 2.625s-2.315 3.707-.472 3.848c1.843.13 2.023.13 2.023.13-.55 1.142-2.383 1.052-3.576 1.663-1.172.612-3.016 2.736-.06 3.497.64.16 1.292.18 1.292.18s-.36.21-2.805 1.824c-2.434 1.614-1.18 3.748.04 3.578 1.223-.16 1.884-.73.472 1.122-1.062 1.392-.1 3.206.44 4.017zm61.695-7.764c-.15-.973-.66-2.956-2.383-3.267-2.295-.42-1.424-.44-.402-1.142 1.012-.712.492-3.126-2.395-2.675-2.885.46-3.285.54-3.285.54s.46-.45.82-1.003c1.674-2.555-1.12-2.885-2.394-2.534-1.293.35-2.586 1.644-3.768 1.183 0 0 .14-.12 1.402-1.463 1.272-1.343-.37-4.338-2.936-2.524-2.564 1.81-4.288.33-6.612 2.483-.54.49-.962.882-1.292 1.192l.12 1.753c.22 3.166 2.494 3.256 3.126 6.332.62 3.085 3.867 2.034 3.867.18-.01-1.843-.03-2.034-.03-2.034 1.182.472 1.23 2.305 1.943 3.447.69 1.122 2.946 2.806 3.477-.21.12-.65.09-1.293.09-1.293s.23.33 2.024 2.646c1.794 2.313 3.827.9 3.577-.31-.26-1.214-.88-1.825 1.082-.553 1.464.953 3.198-.15 3.968-.75zm-77.354-16.621c.55.52 1.793 1.492 2.996.87 1.593-.83 1.072-.41.78.502-.28.912 1.173 2.134 2.716.5 1.544-1.641 1.754-1.881 1.754-1.881s-.07.49-.03.99c.19 2.355 2.043 1.233 2.654.422.62-.82.792-2.225 1.733-2.505 0 0-.03.14-.16 1.562-.14 1.412 2.274 2.454 2.975.14.702-2.313 2.455-2.214 2.855-4.63.09-.56.16-.99.22-1.34-.23-.262-.53-.593-.9-1.003-1.634-1.825-3.057-.813-4.89-2.386-1.843-1.583-3.316.59-2.444 1.713.88 1.122.982 1.223.982 1.223-.942.28-1.844-.812-2.806-1.172s-3.126-.31-2.024 1.773c.24.44.56.822.56.822s-.31-.09-2.484-.65c-2.184-.563-2.755 1.26-2.034 1.873.73.61 1.402.7-.39.852-1.343.11-1.884 1.593-2.064 2.325zm7.043-30.007c-.02.972.16 3.016 1.803 3.607 2.194.79 1.333.67.21 1.2-1.11.522-1 2.997 1.924 3.027 2.916.02 3.336.01 3.336.01s-.53.37-.98.85c-2.075 2.235.63 3.017 1.942 2.887 1.333-.13 2.825-1.192 3.917-.54 0 0-.16.09-1.634 1.212-1.482 1.11-.35 4.327 2.485 2.964 2.827-1.363 4.28.38 6.924-1.353.61-.4 1.102-.72 1.473-.97.05-.452.1-1.023.17-1.755.3-3.146-1.923-3.606-2.034-6.752-.11-3.136-3.486-2.635-3.787-.812-.3 1.824-.31 2.015-.31 2.015-1.083-.66-.833-2.475-1.343-3.717-.5-1.223-2.445-3.246-3.467-.37-.22.62-.3 1.27-.3 1.27s-.18-.38-1.563-2.954c-1.393-2.565-3.627-1.514-3.577-.28.06 1.242.57 1.943-1.152.37-1.292-1.182-3.186-.38-4.037.09zm29.183-26.51c-.9.4-2.674 1.403-2.533 3.146.2 2.335-.05 1.493-1.002.692-.942-.792-3.146.34-1.954 3.005 1.193 2.676 1.384 3.036 1.384 3.036s-.55-.33-1.183-.53c-2.904-.953-2.493 1.833-1.822 2.975.67 1.152 2.264 2.063 2.124 3.326 0 0-.16-.1-1.783-.98-1.634-.873-4.09 1.492-1.664 3.495 2.415 2.003 1.422 4.047 4.118 5.74.61.39 1.102.69 1.483.932.43-.14.972-.33 1.663-.57 3.005-1.043 2.494-3.257 5.3-4.67 2.805-1.402.94-4.268-.842-3.776-1.773.49-1.943.55-1.943.55.14-1.262 1.893-1.792 2.805-2.765.912-.96 1.934-3.575-1.11-3.305-.653.06-1.265.25-1.265.25s.27-.31 2.024-2.645c1.762-2.335-.13-3.928-1.232-3.366-1.093.56-1.523 1.322-.812-.9.53-1.664-.973-3.048-1.755-3.64zm23.376 17.023c-.552-.28-1.773-.752-2.575.03-1.06 1.04-.75.58-.74-.21 0-.792-1.443-1.414-2.274.26-.83 1.673-.932 1.913-.932 1.913s-.07-.41-.22-.8c-.713-1.813-1.914-.48-2.205.31-.302.802-.1 1.954-.782 2.405 0 0-.01-.12-.24-1.282-.23-1.152-2.395-1.403-2.395.6s-1.413 2.355-1.143 4.36c.06.46.1.83.14 1.11.25.15.562.352.962.592 1.734 1.052 2.615-.1 4.45.71 1.832.813 2.483-1.27 1.52-1.952-.97-.67-1.07-.73-1.07-.73.68-.44 1.652.2 2.504.26.842.05 2.555-.5 1.183-1.894-.302-.302-.643-.522-.643-.522s.26 0 2.125-.08c1.863-.08 1.883-1.663 1.15-1.974-.72-.31-1.27-.21.11-.762 1.042-.42 1.103-1.723 1.074-2.344zm-53.822-12.314c-.15.74-.32 2.305.84 2.996 1.554.91.913.7-.01.932-.92.24-1.19 2.124 1.013 2.564 2.214.45 2.525.49 2.525.49s-.45.2-.862.512c-1.894 1.393.04 2.375 1.052 2.465 1.032.1 2.314-.5 3.036.16 0 0-.13.05-1.403.682-1.282.63-.892 3.226 1.453 2.604 2.334-.632 3.176.9 5.44-.03.52-.21.92-.382 1.252-.522.09-.33.22-.762.38-1.303.682-2.345-.94-3.016-.57-5.41.37-2.385-2.255-2.495-2.746-1.162-.49 1.343-.52 1.482-.52 1.482-.732-.66-.282-1.993-.482-3.005-.2-1.002-1.393-2.815-2.575-.782-.26.44-.41.912-.41.912s-.08-.3-.762-2.454c-.67-2.145-2.525-1.674-2.655-.73-.14.95.14 1.552-.932.12-.81-1.083-2.352-.752-3.064-.522zm50.796 27.091c-.7 0-2.154.16-2.546 1.354-.53 1.58-.46.97-.86.168-.392-.79-2.165-.66-2.135 1.433.04 2.096.06 2.386.06 2.386s-.28-.37-.632-.68c-1.644-1.454-2.153.5-2.044 1.432.12.952.912 1.994.46 2.785 0 0-.07-.11-.9-1.143-.82-1.042-3.106-.17-2.074 1.823 1.022 2.004-.21 3.076 1.082 4.94.3.43.542.77.722 1.04.32.022.73.05 1.262.09 2.265.16 2.555-1.44 4.8-1.57 2.244-.142 1.833-2.546.52-2.727-1.312-.18-1.442-.19-1.442-.19.45-.79 1.753-.64 2.635-1.02.86-.382 2.283-1.814.2-2.496-.45-.15-.913-.19-.913-.19s.27-.14 2.084-1.172c1.825-1.032 1.024-2.615.142-2.555s-1.383.44-.28-.82c.82-.945.218-2.287-.143-2.888zm15.057-13.565c-.97.11-2.965.56-3.335 2.273-.49 2.284-.48 1.413-1.153.37-.682-1.042-3.116-.6-2.745 2.305.36 2.896.44 3.307.44 3.307s-.44-.48-.98-.852c-2.506-1.754-2.917 1.02-2.606 2.314.3 1.302 1.56 2.634 1.06 3.797 0 0-.12-.14-1.422-1.453-1.302-1.31-4.34.242-2.604 2.866 1.732 2.615.19 4.278 2.274 6.673.47.55.85.99 1.15 1.332.452-.02 1.022-.04 1.755-.07 3.176-.13 3.336-2.395 6.432-2.926 3.096-.53 2.145-3.797.3-3.848-1.853-.05-2.032-.04-2.032-.04.5-1.162 2.334-1.162 3.496-1.833 1.15-.65 2.894-2.865-.102-3.486-.642-.132-1.292-.132-1.292-.132s.35-.22 2.715-1.943c2.364-1.713 1.013-3.797-.2-3.576-1.222.23-1.853.82-.52-1.094.99-1.442-.05-3.205-.633-3.987zm-78.397 18.093c.16.73.652 2.225 1.995 2.375 1.793.2 1.122.27.37.862-.74.59-.22 2.425 1.974 1.923 2.193-.49 2.504-.58 2.504-.58s-.33.37-.58.812c-1.153 2.054 1 2.164 1.973 1.833.972-.34 1.903-1.402 2.835-1.102 0 0-.1.1-1.012 1.192-.912 1.102.51 3.315 2.385 1.782 1.883-1.522 3.276-.47 4.96-2.244.39-.4.69-.73.93-.98-.05-.342-.11-.782-.18-1.344-.34-2.424-2.083-2.374-2.724-4.698-.64-2.334-3.085-1.362-2.984.06.1 1.413.13 1.554.13 1.554-.942-.3-1.072-1.693-1.673-2.535-.59-.83-2.415-2.004-2.665.34-.05.502 0 1.003 0 1.003s-.2-.25-1.693-1.934-2.986-.5-2.726.42c.26.912.76 1.354-.802.48-1.184-.66-2.456.27-3.017.78zm96.38 19.577c-.3-.63-1.06-1.884-2.304-1.743-1.662.19-1.07-.01-.52-.7s-.31-2.246-2.195-1.334c-1.882.91-2.144 1.053-2.144 1.053s.23-.41.36-.862c.622-2.094-1.36-1.743-2.173-1.242-.81.51-1.422 1.673-2.334 1.593 0 0 .07-.11.66-1.292.59-1.183-1.153-2.896-2.536-1.122-1.38 1.784-2.863 1.112-4.018 3.076-.27.45-.48.802-.64 1.082.12.312.26.69.45 1.183.812 2.125 2.385 1.714 3.457 3.698 1.06 1.973 3.076.58 2.686-.682s-.44-1.393-.44-1.393c.912.08 1.322 1.322 2.043 1.964.71.62 2.605 1.303 2.346-.872-.062-.47-.212-.9-.212-.9s.23.18 1.943 1.392c1.704 1.212 2.806-.18 2.376-.952-.422-.78-.973-1.072.63-.61 1.202.348 2.165-.763 2.565-1.335zm-38.54-59.882c-.723.22-2.176.842-2.215 2.185-.05 1.803-.17 1.142-.822.44-.65-.69-2.434-.02-1.763 2.124.68 2.154.79 2.445.79 2.445s-.4-.3-.86-.512c-2.144-.98-2.063 1.183-1.663 2.114.42.952 1.553 1.783 1.332 2.735 0 0-.11-.09-1.272-.903-1.173-.82-3.256.782-1.584 2.525 1.674 1.743.732 3.226 2.646 4.76.43.35.782.62 1.052.84.34-.07.77-.17 1.322-.29 2.385-.53 2.194-2.274 4.47-3.105 2.273-.82 1.1-3.176-.302-2.966-1.412.222-1.543.252-1.543.252.22-.952 1.612-1.202 2.394-1.864.78-.66 1.804-2.574-.55-2.635-.513-.01-1.003.08-1.003.08s.23-.21 1.784-1.844c1.563-1.634.25-3.017-.64-2.686-.894.34-1.284.882-.542-.762.55-1.22-.482-2.413-1.033-2.934zm-34.475-7.594c-.57.5-1.643 1.653-1.132 2.896.67 1.663.3 1.112-.58.74-.882-.37-2.235.973-.742 2.656 1.484 1.693 1.714 1.913 1.714 1.913s-.49-.11-1.002-.12c-2.354-.03-1.402 1.923-.65 2.604.76.7 2.133 1 2.323 1.963 0 0-.14-.04-1.533-.31-1.403-.272-2.665 2.033-.42 2.955 2.233.91 1.982 2.645 4.347 3.266.54.15.97.26 1.31.35.28-.21.632-.47 1.083-.81 1.964-1.453 1.082-2.966 2.825-4.65 1.743-1.672-.28-3.355-1.483-2.584-1.192.77-1.312.86-1.312.86-.18-.96.992-1.752 1.442-2.684.44-.922.59-3.076-1.583-2.174-.47.19-.872.47-.872.47s.12-.29.882-2.403c.76-2.124-1.002-2.865-1.683-2.194-.672.67-.823 1.32-.803-.472.012-1.352-1.42-2.024-2.132-2.274zm-26.961 28.914c.38.65 1.323 1.913 2.635 1.644 1.762-.37 1.15-.1.63.7-.52.792.55 2.375 2.475 1.203 1.923-1.162 2.194-1.333 2.194-1.333s-.2.45-.3.952c-.452 2.314 1.632 1.733 2.443 1.112.82-.62 1.373-1.924 2.345-1.934 0 0-.06.13-.58 1.452-.512 1.333 1.532 2.986 2.834.942 1.302-2.034 2.956-1.473 3.998-3.688.24-.51.43-.91.57-1.222-.15-.32-.35-.712-.59-1.223-1.082-2.194-2.725-1.593-4.067-3.617-1.343-2.014-3.356-.32-2.815 1.002.54 1.312.61 1.443.61 1.443-.98.01-1.552-1.28-2.384-1.893-.822-.602-2.916-1.143-2.425 1.162.11.49.32.94.32.94s-.27-.17-2.224-1.303c-1.944-1.122-2.986.472-2.455 1.263.542.792 1.163 1.042-.61.712-1.324-.248-2.235 1.034-2.606 1.686zm80.01-10.651c-.48-.4-1.573-1.122-2.525-.54-1.263.78-.862.4-.683-.37.19-.772-1.092-1.704-2.264-.252-1.182 1.443-1.342 1.653-1.342 1.653s.03-.41-.03-.83c-.29-1.925-1.763-.893-2.224-.182-.462.71-.52 1.884-1.292 2.164 0 0 .02-.12.05-1.303.04-1.172-2.015-1.894-2.464.06-.45 1.954-1.904 1.975-2.095 3.988-.04.46-.08.832-.11 1.122.21.2.47.45.812.78 1.452 1.403 2.575.482 4.178 1.685s2.706-.682 1.913-1.563c-.79-.872-.87-.952-.87-.952.76-.28 1.56.57 2.384.812.81.24 2.595.08 1.562-1.583-.22-.35-.51-.65-.51-.65s.26.06 2.093.4c1.833.33 2.204-1.203 1.563-1.664-.63-.47-1.192-.5.28-.73 1.104-.172 1.464-1.423 1.574-2.046zm-71.144 70.653c.73.17 2.294.36 3.006-.78.952-1.533.72-.902.942.03.21.93 2.094 1.24 2.584-.963.49-2.193.54-2.505.54-2.505s.19.46.482.872c1.363 1.924 2.385.01 2.495-1.002.12-1.02-.452-2.314.22-3.036 0 0 .05.14.65 1.423.602 1.292 3.216.96 2.635-1.393-.57-2.355.982-3.156.09-5.44-.2-.522-.36-.932-.49-1.263-.332-.1-.752-.24-1.293-.41-2.334-.732-3.036.87-5.42.45s-2.545 2.204-1.222 2.726c1.332.51 1.462.55 1.462.55-.67.722-1.994.24-3.005.422-1.012.18-2.846 1.322-.842 2.555.44.26.912.43.912.43s-.31.07-2.474.702c-2.165.63-1.724 2.483-.782 2.645.933.16 1.554-.11.09.93-1.1.78-.8 2.334-.58 3.056zm35.668-96.14c-.752.12-2.275.53-2.495 1.863-.31 1.764-.33 1.103-.88.32-.552-.78-2.416-.36-2.045 1.854.38 2.225.45 2.535.45 2.535s-.36-.35-.78-.62c-1.984-1.273-2.214.88-1.944 1.862.28.992 1.292 1.974.942 2.886 0 0-.09-.1-1.132-1.072-1.052-.962-3.336.32-1.923 2.284 1.423 1.964.28 3.297 1.964 5.08.38.4.69.73.932.98.34-.03.78-.06 1.342-.11 2.445-.19 2.495-1.942 4.86-2.453 2.363-.502 1.532-2.997.11-2.977-1.424.02-1.563.04-1.563.04.35-.922 1.763-.972 2.635-1.523.862-.54 2.134-2.294-.19-2.685-.5-.08-1.002-.05-1.002-.05s.26-.19 2.024-1.583c1.774-1.403.67-2.956-.26-2.745-.933.2-1.403.68-.44-.832.718-1.142-.133-2.464-.604-3.055zm-50.976 69.79c.5.562 1.664 1.624 2.906 1.103 1.652-.7 1.102-.32.75.57-.36.883.993 2.226 2.666.712 1.663-1.512 1.894-1.743 1.894-1.743s-.11.49-.11 1.002c0 2.354 1.934 1.383 2.615.622.68-.772.972-2.154 1.934-2.345 0 0-.04.13-.3 1.533-.25 1.402 2.073 2.635 2.965.38.88-2.243 2.615-2.013 3.216-4.377.13-.55.24-.98.33-1.322-.21-.27-.48-.632-.82-1.072-1.485-1.954-2.988-1.052-4.69-2.776-1.694-1.713-3.347.33-2.566 1.524.782 1.182.872 1.292.872 1.292-.962.2-1.763-.962-2.695-1.403-.923-.43-3.087-.56-2.165 1.603.2.47.49.88.49.88s-.29-.12-2.424-.86c-2.123-.73-2.844 1.03-2.163 1.703.67.67 1.333.812-.46.82-1.354 0-2.004 1.444-2.245 2.155zm107.29-14.827c-.51-.56-1.69-1.603-2.924-1.062-1.645.722-1.104.33-.752-.56.34-.883-1.033-2.205-2.676-.673-1.652 1.533-1.873 1.764-1.873 1.764s.1-.49.1-1c-.04-2.355-1.963-1.363-2.625-.592-.68.782-.94 2.174-1.902 2.375 0 0 .04-.13.27-1.533.24-1.413-2.104-2.615-2.955-.35-.86 2.263-2.605 2.053-3.166 4.417-.12.55-.23.982-.312 1.323.22.28.49.62.842 1.07 1.502 1.925 2.996 1.003 4.72 2.707 1.722 1.692 3.345-.382 2.544-1.554-.803-1.182-.893-1.292-.893-1.292.964-.21 1.786.942 2.716 1.373.932.42 3.096.512 2.145-1.633-.21-.47-.5-.872-.5-.872s.29.12 2.435.82c2.135.703 2.826-1.07 2.145-1.732-.69-.66-1.342-.79.45-.82 1.35-.02 1.982-1.45 2.212-2.173z" fill="currentColor" fill-rule="evenodd"/><path d="m49.76 43.905c-.29.465-.69.757-1.152 1.03-1.133.668-2.432.69-3.656 1.01-3.87 1.013-4.455 2.278-5.58 3.07-.146.104-.376.202-.29.53.618-.242 1.228-.475 1.834-.717.942-.376 3.712-1.944 4.415-1.417.372.303.578 1.647.867 1.84.333-.665 1.19-1.786 1.88-1.882 1.232-.168 1.79-.935 2.86-1.52 1.367-.75 2.812-1.07 4.367-.944.352.027.412 1.12.3 1.64-.1.465-2.294 3-.206 2.794.52-1.617 3.31-2.45 3.59-2.453.453-.005.787.34 1.13.632.675.58 1.777 1.88 3.424 1.938.015-.255-.153-.336-.296-.43-.568-.38-2.07-1.652-2.438-2.216-.435-.67-.194-.57.823-.98.49-.196.98-.088 1.47-.193.252-.18.504-.382.794-.444.844.152 1.55.53 2.244.97.555.35.775.256 1.46.383.417.078 1.96 1.21 2.136 1.764.116.364.295.843 1.143 1.04.137.033.166.25.396.105-.162-.562-.563-1.913-.512-2.45.112-.257.28-.385.45-.462.172-.075.348-.1.478-.14 1.378-.484 6.343 2.906 7.905 2.906-1.646-1.588-6.527-3.39-8.266-4.282-.2-.077-.404-.155-.607-.23l-1.904-1.79c-1.02-.46-1.312-1.095-2.202-1.847-4.418-3.735-4.7-19.104-2.234-24.154 1.713-3.536 4.59-6.082 9.217-7.354 2.625-.722 5.842-.54 10.53 1.202.73.28 1.353.5 1.362.48-1.192-.64-2.396-1.282-3.587-1.923-4.87-2.604-8.597-3.065-13.856-.49-1.442.71-2.775 1.402-4.038 2.063 1.11-6.02 4.106-11.19 14.276-16.54 1.091-.574 2.023-1.084 2.003-1.124-2.023.742-4.06 1.483-6.082 2.225-6.832 2.505-11.09 5.64-13.775 11.77-1.112-4.655-2.215-9.645-4.43-13.603 5.04-6.753 6.653-11.82 15.98-12.563-1.102-.622-1.853-.682-3.135-.722-4.43-.13-7.635 1.092-11.03 4.92-.993 1.12-1.903 2.183-2.767 3.205-.058-1.032-.13-2.084-.22-3.166-.49-6.332.23-11.592 9.268-18.455.812-.61 1.504-1.15 1.483-1.182-1.552.87-3.104 1.753-4.648 2.635-6.29 3.566-9.417 7.374-10.23 14.998-.13 1.223-.24 2.395-.34 3.537-1.883-2.505-3.997-5.03-6.332-7.675-5.08-5.76-8.226-11.382-4.48-24.597.332-1.19.612-2.214.572-2.233l-2.585 5.94c-2.595 6.002-3.396 10.85-1.643 16.24-3.978-2.725-7.484-2.895-12.273-1.572l-3.937 1.082c.01.03.67-.05 1.443-.16 8.576-1.172 14.547 2.304 17.693 5.98 6.75 7.896 12.842 14.85 13.745 25.52-1.473-1.254-3.035-2.556-4.7-3.908-7.23-5.83-13.17-6.42-21.617-4.097l-6.24 1.713c.01.05 1.06-.08 2.293-.25 12.944-1.764 18.213 1.683 22.992 7.043-1.483-.08-3.056-.17-4.74-.22-5.85-.19-9.056 1.763-12.422 6.14-.822 1.083-1.653 2.155-2.485 3.237.02.02.5-.45 1.062-.992 6.13-6.1 10.188-6.09 14.917-5.048 3.407.75 6.02 1.652 7.965 2.896 7.083 4.568 4.32 19.586 1.973 26.52-.61 1.853-1.162 3.426-1.553 4.488l-.252.94z" fill="currentColor"/><g clip-rule="evenodd" fill-rule="evenodd"><path d="m73.193 5.69s.742-4.765 3.398-6.82c3.029-1.74 3.359-.16 10.009-3.383.477 1.643-.926 6.76-6.053 9.844-3.89 1.9-7.352.357-7.352.357z" fill="#bbdb58"/><path d="m70.725 7.825s3.697-2.967 7.722-5.012c6.363-3.23 8.017-6.915 8.017-6.915s-1.84 3.445-8.2 6.68c-4.024 2.04-7.725 5.008-7.725 5.008l.185.24z" fill="#99c122"/></g></svg>
